<svg preserveAspectRatio="none" width="100%" height="100%" overflow="visible" style="display: block;" viewBox="0 0 167 287" fill="none" xmlns="http://www.w3.org/2000/svg">
<g id="element-1">
<path id="Subtract" fill-rule="evenodd" clip-rule="evenodd" d="M0 115.361L0 203.5C0 249.616 37.3842 287 83.5 287C129.616 287 167 249.616 167 203.5V115.361C155.31 150.269 122.342 175.423 83.5 175.423C44.6576 175.423 11.6905 150.269 0 115.361Z" fill="url(#paint0_linear_0_207)"/>
<g id="Group 6">
<g id="Group 4">
<path id="Subtract_2" fill-rule="evenodd" clip-rule="evenodd" d="M84 165C129.563 165 166.5 128.063 166.5 82.5C166.5 36.9365 129.563 0 84 0C38.4365 0 1.5 36.9365 1.5 82.5C1.5 128.063 38.4365 165 84 165ZM84 151.549C122.135 151.549 153.049 120.635 153.049 82.5C153.049 44.3653 122.135 13.4511 84 13.4511C45.8653 13.4511 14.9511 44.3653 14.9511 82.5C14.9511 120.635 45.8653 151.549 84 151.549Z" fill="var(--fill-0, #C2D775)"/>
<path id="Subtract_3" fill-rule="evenodd" clip-rule="evenodd" d="M83.5516 126.44C107.572 126.44 127.043 106.968 127.043 82.9484C127.043 58.9285 107.572 39.4565 83.5516 39.4565C59.5317 39.4565 40.0598 58.9285 40.0598 82.9484C40.0598 106.968 59.5317 126.44 83.5516 126.44ZM75.0326 70.8424C73.0516 70.8424 71.4456 72.4483 71.4456 74.4293V90.5706C71.4456 92.5517 73.0516 94.1576 75.0326 94.1576H92.0706C94.0516 94.1576 95.6576 92.5517 95.6576 90.5706V74.4293C95.6576 72.4483 94.0516 70.8424 92.0706 70.8424H75.0326Z" fill="var(--fill-0, white)"/>
</g>
<path id="Subtract_4" fill-rule="evenodd" clip-rule="evenodd" d="M166.495 83.3967C166.498 83.0982 166.5 82.7993 166.5 82.5C166.5 36.9365 129.563 0 84 0C38.4365 0 1.5 36.9365 1.5 82.5C1.5 82.7993 1.50159 83.0982 1.50477 83.3967H14.9568C14.953 83.0983 14.9511 82.7994 14.9511 82.5C14.9511 44.3653 45.8653 13.4511 84 13.4511C122.135 13.4511 153.049 44.3653 153.049 82.5C153.049 82.7994 153.047 83.0983 153.043 83.3967H166.495Z" fill="var(--fill-0, #1C49D9)"/>
</g>
</g>
<defs>
<linearGradient id="paint0_linear_0_207" x1="83.5" y1="158.019" x2="83.5" y2="300.514" gradientUnits="userSpaceOnUse">
<stop stop-color="#CDD766"/>
<stop offset="1" stop-color="#F8CF72"/>
</linearGradient>
</defs>
</svg>
