<svg preserveAspectRatio="none" width="100%" height="100%" overflow="visible" style="display: block;" viewBox="0 0 62 62" fill="none" xmlns="http://www.w3.org/2000/svg">
<g id="Group 8">
<mask id="mask0_0_107" style="mask-type:alpha" maskUnits="userSpaceOnUse" x="0" y="0" width="62" height="62">
<path id="Subtract" d="M2.71011e-06 31C4.20686e-06 13.8792 13.8792 -3.92159e-07 31 1.10459e-06C48.1208 2.60134e-06 62 13.8792 62 31C62 48.1208 48.1208 62 31 62C13.8792 62 1.21336e-06 48.1208 2.71011e-06 31Z" fill="var(--fill-0, #F9D448)"/>
</mask>
<g mask="url(#mask0_0_107)">
<rect id="Rectangle 17" x="-1" y="-4" width="67" height="38" fill="var(--fill-0, #9830F3)"/>
<path id="Star 5" d="M29.0877 16.9342C29.7862 15.9776 31.2138 15.9776 31.9123 16.9342L32.6747 17.9784C33.1753 18.6641 34.0962 18.8911 34.8582 18.5166L36.0185 17.9463C37.0816 17.4239 38.3457 18.0873 38.5196 19.259L38.7094 20.5378C38.8341 21.3777 39.544 22.0066 40.3927 22.0291L41.6851 22.0634C42.8692 22.0948 43.6802 23.2697 43.2897 24.388L42.8634 25.6085C42.5835 26.4101 42.9199 27.297 43.6609 27.7113L44.7893 28.3423C45.8232 28.9204 45.9953 30.3375 45.1298 31.1463L44.1852 32.029C43.5648 32.6086 43.4505 33.5502 43.9141 34.2615L44.62 35.3446C45.2668 36.3369 44.7606 37.6717 43.6184 37.9856L42.3718 38.3282C41.5531 38.5532 41.0143 39.3337 41.0943 40.179L41.216 41.4661C41.3275 42.6454 40.259 43.592 39.1018 43.3392L37.8387 43.0632C37.0093 42.8819 36.1694 43.3227 35.8474 44.1083L35.3571 45.3045C34.9078 46.4006 33.5217 46.7422 32.6146 45.9805L31.6245 45.1492C30.9742 44.6032 30.0258 44.6032 29.3755 45.1492L28.3854 45.9805C27.4783 46.7422 26.0922 46.4006 25.6429 45.3045L25.1526 44.1083C24.8306 43.3227 23.9907 42.8819 23.1613 43.0632L21.8982 43.3392C20.741 43.592 19.6725 42.6454 19.784 41.4661L19.9057 40.179C19.9857 39.3337 19.4469 38.5532 18.6282 38.3282L17.3816 37.9856C16.2394 37.6717 15.7332 36.3369 16.38 35.3446L17.0859 34.2615C17.5495 33.5502 17.4352 32.6086 16.8148 32.029L15.8702 31.1463C15.0047 30.3375 15.1768 28.9204 16.2107 28.3423L17.3391 27.7113C18.0801 27.297 18.4165 26.4101 18.1366 25.6085L17.7103 24.388C17.3198 23.2697 18.1308 22.0948 19.3149 22.0634L20.6073 22.0291C21.456 22.0066 22.1659 21.3776 22.2906 20.5378L22.4804 19.259C22.6543 18.0873 23.9184 17.4239 24.9815 17.9463L26.1418 18.5166C26.9038 18.8911 27.8247 18.6641 28.3253 17.9784L29.0877 16.9342Z" fill="var(--fill-0, white)"/>
</g>
</g>
</svg>
