<svg preserveAspectRatio="none" width="100%" height="100%" overflow="visible" style="display: block;" viewBox="0 0 74 75" fill="none" xmlns="http://www.w3.org/2000/svg">
<g id="Group 38">
<rect id="Rectangle 92" width="74" height="75" rx="16" fill="var(--fill-0, #2050F6)"/>
<path id="Subtract" fill-rule="evenodd" clip-rule="evenodd" d="M37.5 63C51.5833 63 63 51.5833 63 37.5C63 23.4167 51.5833 12 37.5 12C23.4167 12 12 23.4167 12 37.5C12 51.5833 23.4167 63 37.5 63ZM33 29C30.7909 29 29 30.7909 29 33V41C29 43.2091 30.7909 45 33 45H42C44.2091 45 46 43.2091 46 41V33C46 30.7909 44.2091 29 42 29H33Z" fill="var(--fill-0, white)"/>
</g>
</svg>
