<svg preserveAspectRatio="none" width="100%" height="100%" overflow="visible" style="display: block;" viewBox="0 0 86 226" fill="none" xmlns="http://www.w3.org/2000/svg">
<g id="Group 7">
<path id="Subtract" fill-rule="evenodd" clip-rule="evenodd" d="M0 59.8387L0 183C0 206.748 19.2518 226 43 226C66.7483 226 86 206.748 86 183V59.4893C79.9715 77.4905 62.971 90.4623 42.9407 90.4623C23.0402 90.4623 6.13037 77.6581 0 59.8387Z" fill="url(#paint0_linear_0_118)"/>
<g id="Group 6">
<g id="Group 4">
<path id="Subtract_2" fill-rule="evenodd" clip-rule="evenodd" d="M43.1988 85.0871C66.6949 85.0871 85.7423 66.0397 85.7423 42.5436C85.7423 19.0474 66.6949 0 43.1988 0C19.7026 0 0.655203 19.0474 0.655203 42.5436C0.655203 66.0397 19.7026 85.0871 43.1988 85.0871ZM43.1985 78.1507C62.8638 78.1507 78.8056 62.2089 78.8056 42.5436C78.8056 22.8783 62.8638 6.9365 43.1985 6.9365C23.5332 6.9365 7.5914 22.8783 7.5914 42.5436C7.5914 62.2089 23.5332 78.1507 43.1985 78.1507Z" fill="var(--fill-0, #9830F2)"/>
<path id="Subtract_3" fill-rule="evenodd" clip-rule="evenodd" d="M42.9999 74C60.1208 74 73.9999 60.1208 73.9999 43C73.9999 25.8792 60.1208 12 42.9999 12C25.8791 12 11.9999 25.8792 11.9999 43C11.9999 60.1208 25.8791 74 42.9999 74ZM42.0876 57.0658C42.7862 58.0224 44.2137 58.0224 44.9122 57.0658L45.6746 56.0216C46.1753 55.3359 47.0962 55.1089 47.8582 55.4834L49.0185 56.0537C50.0816 56.5761 51.3456 55.9127 51.5195 54.741L51.7093 53.4622C51.834 52.6223 52.5439 51.9934 53.3927 51.9709L54.6851 51.9366C55.8692 51.9052 56.6801 50.7303 56.2896 49.612L55.8634 48.3914C55.5835 47.5899 55.9198 46.703 56.6609 46.2887L57.7893 45.6577C58.8232 45.0796 58.9952 43.6624 58.1297 42.8537L57.1851 41.971C56.5647 41.3914 56.4504 40.4498 56.914 39.7385L57.62 38.6554C58.2668 37.6631 57.7606 36.3283 56.6184 36.0144L55.3717 35.6718C54.553 35.4468 54.0143 34.6663 54.0942 33.821L54.2159 32.5339C54.3275 31.3546 53.2589 30.408 52.1017 30.6608L50.8387 30.9368C50.0092 31.1181 49.1694 30.6773 48.8473 29.8917L48.357 28.6955C47.9077 27.5994 46.5217 27.2578 45.6145 28.0195L44.6244 28.8508C43.9742 29.3968 43.0257 29.3968 42.3755 28.8508L41.3854 28.0195C40.4782 27.2578 39.0921 27.5994 38.6429 28.6955L38.1525 29.8917C37.8305 30.6773 36.9907 31.1181 36.1612 30.9368L34.8981 30.6608C33.7409 30.408 32.6724 31.3546 32.7839 32.5339L32.9057 33.821C32.9856 34.6663 32.4468 35.4468 31.6281 35.6718L30.3815 36.0144C29.2393 36.3283 28.7331 37.6631 29.3799 38.6554L30.0858 39.7385C30.5494 40.4498 30.4351 41.3914 29.8147 41.971L28.8701 42.8537C28.0046 43.6625 28.1767 45.0796 29.2106 45.6577L30.339 46.2887C31.0801 46.703 31.4164 47.5899 31.1365 48.3915L30.7103 49.612C30.3197 50.7303 31.1307 51.9052 32.3148 51.9366L33.6072 51.9709C34.4559 51.9934 35.1659 52.6223 35.2905 53.4622L35.4804 54.741C35.6543 55.9127 36.9183 56.5761 37.9814 56.0537L39.1417 55.4834C39.9037 55.1089 40.8246 55.3359 41.3253 56.0216L42.0876 57.0658Z" fill="var(--fill-0, #F9D448)"/>
</g>
<path id="Subtract_4" fill-rule="evenodd" clip-rule="evenodd" d="M85.7398 43.006C85.7415 42.852 85.7423 42.6979 85.7423 42.5436C85.7423 19.0474 66.6949 0 43.1988 0C19.7026 0 0.655205 19.0474 0.655205 42.5436C0.655205 42.6979 0.656027 42.852 0.657666 43.006H7.59434C7.59238 42.8521 7.5914 42.698 7.5914 42.5436C7.5914 22.8783 23.5332 6.9365 43.1985 6.9365C62.8638 6.9365 78.8056 22.8783 78.8056 42.5436C78.8056 42.698 78.8046 42.8521 78.8027 43.006H85.7398Z" fill="var(--fill-0, #F9D448)"/>
</g>
</g>
<defs>
<linearGradient id="paint0_linear_0_118" x1="42.9408" y1="86.126" x2="43.0276" y2="226" gradientUnits="userSpaceOnUse">
<stop stop-color="#5FADF5"/>
<stop offset="1" stop-color="#A5DBA7"/>
</linearGradient>
</defs>
</svg>
