<svg preserveAspectRatio="none" width="100%" height="100%" overflow="visible" style="display: block;" viewBox="0 0 74 75" fill="none" xmlns="http://www.w3.org/2000/svg">
<g id="Group 39">
<rect id="Rectangle 91" width="74" height="75" rx="16" fill="var(--fill-0, #2050F6)"/>
<path id="C" d="M9 37.2645C9 31.5742 10.1381 26.5071 12.4142 22.0632C14.7445 17.6194 18.0503 14.1781 22.3316 11.7394C26.6129 9.24645 31.6529 8 37.4516 8C42.4374 8 46.8813 8.94839 50.7832 10.8452C54.7394 12.6877 57.9368 15.3161 60.3755 18.7303C62.8684 22.1445 64.5213 26.1277 65.3342 30.68H46.3123C45.4452 28.7832 44.1987 27.32 42.5729 26.2903C41.0013 25.2065 39.1858 24.6645 37.1265 24.6645C34.0916 24.6645 31.68 25.8026 29.8916 28.0787C28.1574 30.3548 27.2903 33.4168 27.2903 37.2645C27.2903 41.1123 28.1574 44.1742 29.8916 46.4503C31.68 48.7265 34.0916 49.8645 37.1265 49.8645C39.1858 49.8645 41.0013 49.3497 42.5729 48.32C44.1987 47.2361 45.4452 45.7458 46.3123 43.849H65.3342C64.5213 48.4013 62.8684 52.3845 60.3755 55.7987C57.9368 59.2129 54.7394 61.8684 50.7832 63.7652C46.8813 65.6077 42.4374 66.529 37.4516 66.529C31.6529 66.529 26.6129 65.3097 22.3316 62.871C18.0503 60.3781 14.7445 56.9097 12.4142 52.4658C10.1381 48.0219 9 42.9548 9 37.2645Z" fill="var(--fill-0, white)"/>
</g>
</svg>
