<svg preserveAspectRatio="none" width="100%" height="100%" overflow="visible" style="display: block;" viewBox="0 0 314 473" fill="none" xmlns="http://www.w3.org/2000/svg">
<g id="Group 62">
<circle id="Ellipse 15" cx="102" cy="39" r="29" fill="var(--fill-0, #2006EF)"/>
<circle id="Ellipse 17" cx="34" cy="187" r="29" fill="var(--fill-0, #D74F48)"/>
<circle id="Ellipse 18" cx="164" cy="139" r="29" fill="var(--fill-0, #3F80DC)"/>
<circle id="Ellipse 19" cx="290" cy="108" r="24" fill="var(--fill-0, #E7983C)"/>
<circle id="Ellipse 20" cx="250" cy="181" r="29" fill="var(--fill-0, #204CE1)"/>
<circle id="Ellipse 16" cx="277" cy="29" r="29" fill="var(--fill-0, #58B9B6)"/>
<rect id="Rectangle 20" x="32" y="416" width="60" height="11" fill="url(#paint0_linear_0_151)"/>
<rect id="Rectangle 16" x="38" y="112" width="15" height="15" rx="2" fill="var(--fill-0, white)"/>
<rect id="Rectangle 28" x="291" y="192" width="15" height="15" rx="2" fill="var(--fill-0, #F9D546)"/>
<rect id="Rectangle 24" x="284" y="458" width="15" height="15" rx="2" fill="var(--fill-0, #F9D448)"/>
<g id="Group 10">
<path id="Rectangle 32" d="M142 218L197 196V246.5H75L142 218Z" fill="var(--fill-0, #2050F6)"/>
<circle id="Ellipse 22" cx="136" cy="225" r="29" fill="var(--fill-0, #F0939C)"/>
<g id="Rectangle 23">
<rect x="75" y="246" width="180" height="134" fill="url(#paint1_linear_0_151)"/>
<rect x="75" y="246" width="180" height="134" fill="url(#paint2_linear_0_151)"/>
<rect x="75" y="246" width="180" height="134" fill="url(#paint3_linear_0_151)"/>
</g>
<rect id="Rectangle 25" x="207" y="246" width="48" height="134" fill="url(#paint4_linear_0_151)"/>
<rect id="Rectangle 26" x="74" y="274" width="180" height="78" fill="url(#paint5_linear_0_151)"/>
</g>
<circle id="Ellipse 14" cx="29" cy="68" r="29" fill="var(--fill-0, #6922F3)"/>
<path id="Rectangle 29" d="M215 312.5C215 303.387 222.387 296 231.5 296H255V329H231.5C222.387 329 215 321.613 215 312.5Z" fill="var(--fill-0, black)"/>
<circle id="Ellipse 21" cx="230" cy="312" r="4" fill="var(--fill-0, white)"/>
<rect id="Rectangle 30" x="255" y="296" width="14" height="33" fill="var(--fill-0, #81E0F4)"/>
<rect id="Rectangle 31" x="96" y="261" width="181" height="103" stroke="var(--stroke-0, black)" stroke-width="4"/>
</g>
<defs>
<linearGradient id="paint0_linear_0_151" x1="34.7907" y1="421" x2="92" y2="421" gradientUnits="userSpaceOnUse">
<stop stop-color="#F1D34C"/>
<stop offset="0.333333" stop-color="#93DEC5"/>
<stop offset="0.666667" stop-color="#7FB4F2"/>
<stop offset="1" stop-color="#9830F3"/>
</linearGradient>
<linearGradient id="paint1_linear_0_151" x1="165" y1="246" x2="165" y2="380" gradientUnits="userSpaceOnUse">
<stop stop-color="#8CDDF3"/>
<stop offset="1" stop-color="#9436F2"/>
</linearGradient>
<linearGradient id="paint2_linear_0_151" x1="165" y1="246" x2="165" y2="380" gradientUnits="userSpaceOnUse">
<stop stop-color="#8CDDF3"/>
<stop offset="1" stop-color="#9436F2"/>
</linearGradient>
<linearGradient id="paint3_linear_0_151" x1="165" y1="246" x2="165" y2="380" gradientUnits="userSpaceOnUse">
<stop stop-color="#8CDDF3"/>
<stop offset="1" stop-color="#9436F2"/>
</linearGradient>
<linearGradient id="paint4_linear_0_151" x1="255" y1="313" x2="207" y2="313" gradientUnits="userSpaceOnUse">
<stop stop-color="#EBD0B5"/>
<stop offset="1" stop-color="#F4D255"/>
</linearGradient>
<linearGradient id="paint5_linear_0_151" x1="254" y1="313" x2="74" y2="313" gradientUnits="userSpaceOnUse">
<stop stop-color="#E1CEF0"/>
<stop offset="0.471838" stop-color="#65BE90"/>
<stop offset="1" stop-color="#AECA52"/>
</linearGradient>
</defs>
</svg>
